# xmcd
#
# Track frame offsets: 
#        150
#        16997
#        34700
#        55565
#        71472
#        88882
#        103840
#        124200
#        138340
#        148810
#        165885
#        199185
#        246912
#        269217
#
# Disc length: 4285 seconds
#
# Revision: 4
# Processed by: cddbd v1.5.2PL0 Copyright (c) Steve Scherf et al.
# Submitted via: ExactAudioCopy v0.95a5
#
DISCID=cc10bb0e
DTITLE=Various Artist - A Taste Of Blues Harmonica
DYEAR=2002
DGENRE=Blues
TTITLE0=Ronnie Earl - Mighty Fine Boogie
TTITLE1=John Primer - Knocking On Your Door
TTITLE2=James Cotton - T.D.'s Boogie Woogie
TTITLE3=Hubert Sumlin - Rock Me Baby
TTITLE4=James Cotton - Lightning
TTITLE5=Robert Lockwood, Jr. - I'm A Steady Rollin' Man
TTITLE6=Charlie Musselwhite - In Your Darkest Hour
TTITLE7=Kenny Neal - Bring It On Home
TTITLE8=The Muddy Waters Tribute Band Featuring Jerry Portnoy - Muddy'
TTITLE8=s Shuffle
TTITLE9=Junior Wells - The Goat
TTITLE10=Raful Neal - Starlight Diamond
TTITLE11=James Cotton - Fire Down Under The Hill
TTITLE12=Snooky Pryor - Pony Blues
TTITLE13=Charlie Musselwhite, Sugar Ray Norcia, Billy Branch, James Co
TTITLE13=tton - Harp to Harp
EXTD=YEAR: 2002
EXTT0=
EXTT1=
EXTT2=
EXTT3=
EXTT4=
EXTT5=
EXTT6=
EXTT7=
EXTT8=
EXTT9=
EXTT10=
EXTT11=
EXTT12=
EXTT13=
PLAYORDER=
